<?xml version="1.0" standalone="no"?>
<!DOCTYPE svg PUBLIC "-//W3C//DTD SVG 20010904//EN"
 "http://www.w3.org/TR/2001/REC-SVG-20010904/DTD/svg10.dtd">
<svg version="1.0" xmlns="http://www.w3.org/2000/svg"
 width="225.000000pt" height="225.000000pt" viewBox="0 0 225.000000 225.000000"
 preserveAspectRatio="xMidYMid meet">
<metadata>
Created by potrace 1.16, written by Peter Selinger 2001-2019
</metadata>
<g transform="translate(0.000000,225.000000) scale(0.100000,-0.100000)"
fill="#000000" stroke="none">
<path d="M0 2235 c0 -17 22 -30 104 -65 32 -14 68 -37 80 -53 62 -83 -31 -201
-145 -183 -36 6 -39 5 -39 -18 0 -18 7 -26 28 -31 43 -10 71 -44 88 -105 24
-85 85 -270 105 -317 10 -24 39 -75 65 -115 72 -111 69 -191 -9 -238 -50 -31
-81 -26 -131 20 -49 46 -72 92 -112 235 l-29 100 -3 -108 c-4 -149 5 -176 91
-264 81 -84 93 -87 170 -43 73 41 98 39 154 -12 62 -58 203 -277 203 -317 0
-6 -13 -17 -30 -26 -29 -15 -30 -15 -30 7 0 57 -174 310 -217 316 -11 2 -42
-11 -69 -27 -79 -51 -117 -42 -212 46 l-62 59 0 -46 c0 -38 5 -51 30 -75 42
-40 55 -86 40 -140 -10 -36 -9 -47 4 -74 9 -17 21 -31 25 -31 5 0 16 -3 24 -6
21 -8 53 30 67 82 15 51 68 104 105 104 43 0 134 -99 151 -164 16 -64 -52
-127 -149 -140 -26 -3 -78 -21 -115 -41 -75 -39 -103 -42 -146 -20 -37 20 -36
21 -36 -22 0 -35 4 -41 61 -77 33 -21 56 -42 51 -45 -5 -3 -13 -14 -18 -24
-10 -17 -13 -16 -48 8 -20 14 -39 25 -41 25 -3 0 -5 -13 -5 -28 0 -23 6 -30
33 -37 34 -10 45 -37 27 -65 -7 -12 -12 -12 -22 -2 -28 28 -38 13 -38 -59 0
-50 3 -68 11 -63 9 5 10 -1 5 -22 -4 -16 -10 -53 -13 -81 l-5 -53 216 0 c139
0 225 4 238 11 12 6 18 7 14 1 -4 -6 196 -10 580 -11 470 -1 584 1 578 11 -6
10 -4 11 7 1 10 -10 87 -13 316 -13 l303 0 0 163 c-1 138 -3 159 -14 139 -12
-23 -13 -23 -30 23 -12 30 -47 76 -102 134 -46 49 -84 95 -84 103 0 8 16 30
36 49 30 29 42 34 82 34 33 0 57 -7 80 -23 l32 -23 0 33 c0 26 -8 39 -34 61
-19 15 -43 27 -53 27 -21 0 -114 -54 -180 -105 -42 -32 -45 -33 -64 -17 -20
17 -20 18 23 55 24 21 77 58 118 82 79 48 122 56 156 30 30 -22 34 -18 34 30
0 36 -7 54 -34 89 -19 25 -40 62 -46 83 -26 78 -49 113 -75 113 -17 0 -29 -8
-36 -24 -9 -19 -5 -36 20 -94 36 -81 33 -98 -21 -148 -63 -60 -109 -69 -153
-31 -37 32 -43 84 -16 146 39 91 28 110 -107 183 -64 34 -97 79 -129 170 -30
89 -27 125 17 195 22 36 31 59 26 75 -3 13 -59 88 -125 168 -131 158 -159 179
-216 160 -28 -9 -39 -8 -70 9 l-37 20 71 22 c70 21 74 21 117 4 38 -14 63 -39
157 -152 156 -188 170 -210 164 -255 -3 -21 -19 -59 -37 -85 -35 -54 -35 -82
1 -179 23 -60 43 -81 128 -125 117 -63 145 -121 101 -218 -23 -50 -25 -72 -8
-89 19 -19 41 -14 71 13 33 31 34 52 6 107 -27 53 -27 109 1 147 25 36 50 45
95 37 43 -8 66 -38 102 -129 l28 -72 3 58 c3 54 1 61 -33 100 -59 69 -59 117
1 173 29 28 46 64 29 64 -19 0 -76 -40 -142 -100 -109 -100 -147 -101 -262
-10 -70 55 -98 116 -82 172 13 43 58 78 102 78 14 0 46 -13 72 -30 26 -16 52
-30 57 -30 5 0 35 22 65 50 30 27 66 52 80 56 31 8 74 -3 97 -23 17 -15 18
-13 18 25 0 36 -3 42 -21 42 -36 0 -90 32 -110 64 -41 67 -19 113 84 183 48
33 55 49 37 84 -17 30 -33 23 -88 -36 -28 -30 -62 -57 -77 -61 -62 -15 -135
49 -135 120 0 56 16 76 94 115 67 33 85 51 144 135 18 27 42 50 53 53 10 3 19
12 19 19 0 10 -16 14 -63 14 l-63 0 4 -33 c3 -29 -3 -40 -50 -86 -83 -84 -120
-105 -170 -98 -60 8 -118 69 -118 125 0 25 8 49 21 66 l22 27 -33 -3 c-28 -2
-37 -10 -54 -44 -32 -63 -70 -108 -148 -175 -63 -54 -75 -61 -104 -56 -18 3
-50 17 -71 31 -51 35 -70 33 -136 -14 -43 -31 -64 -40 -97 -40 -98 0 -152 86
-98 155 12 15 62 54 111 86 l89 59 -55 0 c-36 0 -59 -5 -64 -14 -15 -25 -194
-176 -231 -195 -20 -10 -67 -28 -104 -40 -103 -34 -179 -97 -158 -131 17 -27
67 -12 160 49 103 68 150 78 204 42 l28 -19 -53 -7 c-42 -6 -76 -21 -154 -70
-118 -75 -139 -82 -189 -61 -44 18 -71 71 -57 108 20 53 122 124 211 148 75
20 132 56 199 124 l64 66 -59 0 c-54 0 -65 -4 -112 -39 -36 -28 -67 -42 -100
-47 -70 -10 -101 -26 -166 -85 -70 -63 -98 -106 -126 -189 -25 -73 -21 -102
21 -160 35 -48 47 -49 136 -9 29 12 55 20 58 17 13 -13 -33 -68 -72 -87 -82
-40 -133 -19 -188 75 -24 40 -27 55 -23 109 5 84 61 195 137 274 65 67 119 98
199 112 103 19 92 28 -34 29 l-122 0 -73 -76 c-94 -96 -111 -125 -154 -255
-30 -93 -33 -111 -24 -145 11 -41 41 -85 96 -144 58 -63 53 -110 -19 -181 -54
-52 -81 -63 -124 -49 -43 15 -67 55 -94 160 -12 47 -37 121 -57 164 -45 101
-46 143 -5 202 32 44 56 107 67 176 3 20 21 60 40 89 19 28 35 53 35 55 0 12
-51 1 -73 -16 -58 -46 -104 -46 -156 -1 -29 25 -101 30 -101 6z m1794 -186
c27 -13 65 -78 91 -158 14 -44 34 -71 96 -135 44 -44 84 -94 90 -113 23 -69
-33 -145 -116 -158 -64 -10 -100 21 -160 139 -39 76 -66 115 -122 170 -78 79
-92 110 -73 157 15 35 64 87 94 99 30 12 71 12 100 -1z m-1142 -524 c-13 -40
-39 -72 -124 -159 -60 -60 -108 -116 -108 -127 0 -10 29 -51 65 -91 64 -70 93
-110 171 -233 40 -62 54 -115 31 -115 -21 0 -61 49 -117 142 -28 48 -85 123
-125 167 -104 112 -108 139 -33 226 46 54 249 247 254 242 2 -1 -5 -25 -14
-52z m587 -26 c84 -13 103 -28 104 -79 0 -34 -4 -40 -27 -40 -13 0 -26 6 -29
13 -6 18 -135 10 -167 -11 -30 -19 -70 -25 -67 -9 1 6 -11 14 -28 18 -47 11
-163 10 -170 -1 -3 -5 -13 -10 -21 -10 -10 0 -14 13 -14 45 0 39 3 47 25 55
20 7 159 21 305 28 14 1 54 -3 89 -9z m-120 -184 c30 -64 73 -85 123 -59 15 8
36 14 46 14 11 0 25 7 32 15 15 18 36 20 38 3 0 -7 5 -29 10 -49 10 -39 3 -98
-22 -193 -16 -62 -14 -76 10 -76 21 0 17 -16 -13 -50 -16 -17 -41 -33 -58 -36
-16 -2 -45 -9 -62 -15 -18 -6 -42 -7 -54 -4 -15 5 -19 4 -15 -4 4 -6 0 -11 -8
-11 -9 0 -16 4 -16 9 0 6 -12 6 -30 -1 -17 -5 -42 -7 -56 -4 -17 5 -23 3 -19
-4 9 -15 -5 -12 -50 10 -22 11 -48 19 -57 20 -18 0 -78 67 -78 87 0 7 7 10 15
7 12 -5 15 1 13 27 -1 19 -5 39 -8 44 -4 6 -17 39 -29 74 -21 64 -27 134 -15
179 6 22 7 22 20 4 7 -11 25 -23 40 -26 15 -4 33 -14 42 -23 31 -31 113 1 128
51 17 54 50 59 73 11z m562 -269 c86 -25 119 -70 119 -163 0 -32 7 -80 15
-107 12 -39 13 -57 4 -83 -12 -38 -9 -36 -44 -23 -22 8 -24 13 -15 31 9 15 9
29 0 52 -6 18 -14 68 -17 111 -7 92 -20 110 -88 127 -25 6 -57 20 -70 31 -24
18 -24 20 -8 44 14 22 18 23 32 10 9 -8 41 -21 72 -30z m-75 -98 c66 -45 104
-133 84 -194 -11 -32 -15 -35 -39 -29 -34 9 -34 8 -20 39 10 21 9 33 -6 65
-22 49 -62 88 -95 93 -15 2 -26 11 -28 22 -8 41 46 43 104 4z m-926 -238 c0
-14 -42 -50 -58 -50 -9 0 -6 -7 9 -19 13 -11 21 -22 18 -25 -6 -7 -81 27 -77
35 2 2 -1 1 -6 -3 -5 -3 -16 -4 -25 -1 -13 4 -14 3 -1 -5 8 -6 18 -8 22 -6 4
3 8 -4 8 -15 0 -17 -4 -19 -32 -10 -42 12 -41 12 -34 -7 5 -12 1 -14 -17 -9
-12 4 -30 9 -39 11 -28 8 -21 -19 17 -67 24 -31 44 -46 67 -50 l33 -6 -33 -2
c-45 -1 -67 12 -93 59 -23 40 -49 53 -49 25 0 -8 14 -30 31 -50 51 -58 23 -53
-32 5 -61 65 -65 60 99 125 83 32 119 42 132 35 13 -7 20 -4 30 15 13 25 30
33 30 15z m1055 -44 c8 4 15 2 15 -4 0 -5 20 -16 44 -23 26 -7 42 -18 39 -23
-3 -6 0 -6 7 1 14 13 36 4 74 -30 11 -9 25 -16 30 -14 17 6 39 -22 32 -39 -5
-13 -2 -15 13 -11 25 6 62 -19 55 -38 -4 -10 0 -15 13 -15 10 0 35 -17 55 -37
39 -43 56 -75 32 -66 -9 3 -14 -2 -14 -16 0 -35 -44 -38 -85 -7 -19 15 -35 32
-35 38 0 7 13 0 28 -15 28 -27 62 -36 62 -17 0 6 -4 10 -9 10 -4 0 -26 18 -47
39 -21 22 -42 37 -46 35 -5 -3 -6 -10 -3 -15 4 -5 1 -9 -4 -9 -16 0 -13 48 3
52 9 2 11 10 6 22 -6 18 -9 17 -25 -12 -26 -44 -37 -40 -29 10 5 27 4 39 -3
35 -6 -4 -9 4 -7 18 1 14 -2 27 -7 31 -5 3 -9 0 -9 -5 0 -6 -10 -11 -22 -11
-22 -1 -22 -2 -5 -14 14 -11 16 -22 11 -55 -4 -22 -11 -38 -16 -35 -5 4 -7 22
-3 40 5 31 4 34 -20 34 -31 0 -32 -18 -4 -54 21 -26 20 -56 -1 -56 -6 0 -8 5
-5 11 4 5 0 18 -9 28 -27 30 -25 73 4 87 23 12 23 13 5 19 -11 3 -47 19 -80
34 -60 28 -70 29 -151 16 -25 -4 -44 -3 -48 3 -3 5 0 10 7 9 31 -1 48 4 42 12
-13 22 44 35 73 17 7 -4 16 -6 19 -3 2 3 -9 13 -25 21 -17 9 -34 21 -38 28 -4
7 9 2 29 -10 20 -12 44 -19 52 -16z m-1386 -158 c11 -34 19 -63 17 -65 -1 -2
-16 17 -31 42 -28 43 -45 57 -45 35 0 -5 4 -10 9 -10 5 0 7 -9 4 -20 -6 -22
-18 -26 -28 -10 -10 16 -36 -16 -29 -34 4 -11 0 -16 -15 -16 -18 0 -20 -4 -15
-32 5 -29 4 -31 -9 -16 -8 11 -21 15 -35 11 -17 -4 -20 -11 -16 -37 2 -17 2
-25 -2 -18 -7 14 -34 16 -34 2 0 -5 -4 -10 -9 -10 -19 0 5 55 43 97 30 34 158
140 173 143 0 0 11 -28 22 -62z"/>
<path d="M1698 1977 c-65 -50 -62 -66 25 -155 54 -56 86 -100 117 -162 51
-102 65 -120 97 -120 27 0 83 50 83 74 0 8 -36 53 -79 99 -85 91 -102 117
-121 187 -12 45 -53 110 -70 110 -5 0 -28 -15 -52 -33z"/>
<path d="M1103 1094 c-17 -13 -17 -15 -1 -27 20 -16 14 -27 -13 -27 -24 0 -32
16 -19 40 9 17 8 20 -9 20 -24 0 -88 -28 -113 -49 -10 -8 -18 -25 -18 -38 0
-25 24 -30 65 -14 11 5 25 4 33 -1 8 -7 12 -7 12 0 0 22 126 21 183 -3 14 -6
17 -2 17 23 0 34 -8 42 -72 70 -41 18 -49 18 -65 6z"/>
<path d="M361 2184 c-31 -45 -48 -84 -58 -131 -7 -37 -29 -95 -48 -129 -19
-34 -35 -74 -35 -89 0 -14 14 -55 30 -91 17 -36 38 -95 47 -132 20 -85 48
-151 69 -159 20 -7 64 25 87 65 22 37 17 49 -50 124 -83 94 -92 155 -42 301
45 130 61 158 135 237 l66 70 -78 0 -79 -1 -44 -65z"/>
<path d="M1566 2214 c-38 -46 -67 -52 -130 -25 -28 11 -61 21 -72 21 -11 0
-68 -31 -127 -70 -114 -74 -128 -94 -85 -124 32 -22 36 -21 112 29 83 54 108
56 186 13 l58 -32 56 48 c52 44 96 98 125 154 11 22 11 22 -41 21 -48 0 -56
-4 -82 -35z"/>
<path d="M1905 2242 c-24 -17 -55 -66 -55 -88 0 -28 36 -64 65 -64 26 0 120
63 141 95 12 18 13 28 4 44 -9 18 -20 21 -78 21 -37 0 -72 -4 -77 -8z"/>
<path d="M2206 2102 c-30 -49 -47 -64 -120 -107 -47 -27 -89 -57 -92 -67 -11
-37 38 -85 75 -73 10 3 31 24 47 46 36 52 61 69 101 69 l33 0 0 95 c0 52 -2
95 -4 95 -3 0 -20 -26 -40 -58z"/>
<path d="M0 2075 l0 -73 41 -7 c48 -8 82 6 98 42 8 17 8 30 1 44 -6 10 -12 19
-13 19 -2 0 -31 11 -65 24 l-62 25 0 -74z"/>
<path d="M0 1727 c0 -94 3 -110 34 -188 19 -47 47 -127 62 -179 31 -110 52
-156 87 -189 31 -28 69 -23 93 14 20 30 15 46 -47 141 -60 91 -65 103 -129
314 -46 148 -66 190 -92 190 -4 0 -8 -46 -8 -103z"/>
<path d="M2085 1410 c-70 -67 -103 -73 -169 -30 -57 37 -87 36 -100 -3 -8 -22
-6 -32 11 -55 33 -45 122 -112 148 -112 16 0 49 23 97 66 40 36 88 73 106 82
40 20 51 55 27 82 -30 33 -61 25 -120 -30z"/>
<path d="M0 783 l0 -141 31 -26 c40 -34 63 -33 141 9 36 19 91 38 122 43 57 9
96 33 96 59 0 21 -57 101 -81 114 -27 14 -55 -10 -65 -55 -16 -76 -59 -116
-126 -116 -74 0 -113 60 -105 160 3 36 1 73 -4 81 -5 9 -9 -39 -9 -128z"/>
<path d="M2102 574 c-36 -25 -24 -53 43 -99 33 -23 70 -57 83 -76 l23 -33 -3
79 -3 79 -43 33 c-49 37 -67 40 -100 17z"/>
</g>
</svg>
